<?xml version="1.0" encoding="UTF-8" standalone="no"?>
<svg width="191px" height="92px" viewBox="0 0 191 92" version="1.1" xmlns="http://www.w3.org/2000/svg" xmlns:xlink="http://www.w3.org/1999/xlink" xmlns:sketch="http://www.bohemiancoding.com/sketch/ns">
    <!-- Generator: Sketch 3.2.2 (9983) - http://www.bohemiancoding.com/sketch -->
    <title>Untitled</title>
    <desc>Created with Sketch.</desc>
    <defs></defs>
    <g id="Page-1" stroke="none" stroke-width="1" fill="none" fill-rule="evenodd" sketch:type="MSPage">
        <g id="Imported-Layers" sketch:type="MSLayerGroup" transform="translate(0.000000, -2.000000)" fill="#000000">
            <path d="M190.599397,85.80875 C190.599397,85.80875 190.554452,81.1669444 181.028712,76.9420833 C176.415219,74.8943056 169.565041,69.6191667 159.423288,67.80625 C162.014247,65.0354167 163.978616,60.7023611 165.998507,55.5697222 C167.167082,52.5956944 166.968795,50.0597222 166.968795,46.4497222 C166.968795,43.7818056 167.471123,39.5015278 166.810164,37.1476389 C164.570836,29.1993056 158.918315,27.0063889 152.295507,27.0063889 C145.672699,27.0063889 140.012247,29.2098611 137.778205,37.1740278 C137.11989,39.52 137.627507,43.7897222 137.627507,46.4497222 C137.627507,50.0676389 137.429219,52.6115278 138.603082,55.5908333 C140.268699,59.8156944 141.870863,63.4652778 143.814082,66.1648611 C155.045096,72.9283333 156.097342,80.4148611 156.121137,82.7872222 L156.121137,93.6568056 L190.599397,93.6541667 L190.599397,85.80875" id="Fill-1" sketch:type="MSShapeGroup"></path>
            <path d="M34.7214932,82.8241667 L34.7214932,82.7819444 C34.7479315,80.4280556 35.7869589,73.0418056 46.7879589,66.3205556 C48.8025616,63.5919444 50.4602466,59.8658333 52.1523014,55.5697222 C53.3208767,52.5956944 53.122589,50.0597222 53.122589,46.4497222 C53.122589,43.7818056 53.6249178,39.5015278 52.9613151,37.1476389 C50.7219863,29.1993056 45.0721096,27.0063889 38.4493014,27.0063889 C31.8212055,27.0063889 26.1633973,29.2098611 23.932,37.1740278 C23.2736849,39.52 23.7786575,43.7897222 23.7786575,46.4497222 C23.7786575,50.0676389 23.5830137,52.6115278 24.7542329,55.5908333 C26.7899863,60.7525 28.7226301,65.0776389 31.3083014,67.8352778 C21.2485068,69.6798611 14.4512055,74.9180556 9.86150685,76.9605556 C0.372780822,81.1827778 0.327835616,85.80875 0.327835616,85.80875 L0.327835616,93.6620833 L34.7214932,93.6568056 L34.7214932,82.8241667" id="Fill-2" sketch:type="MSShapeGroup"></path>
            <path d="M134.785384,70.68 C128.442822,67.8669444 119.028123,60.6179167 105.092466,58.1241667 C108.656356,54.31625 111.353068,48.3629167 114.129096,41.3065278 C115.736548,37.21625 115.461589,33.7329167 115.461589,28.7691667 C115.461589,25.10375 116.154274,19.2216667 115.242151,15.9916667 C112.16737,5.06402778 104.399781,2.04777778 95.2970548,2.04777778 C86.1890411,2.04777778 78.4108767,5.07722222 75.3440274,16.0206944 C74.4371918,19.2454167 75.1325205,25.1169444 75.1325205,28.7691667 C75.1325205,33.7461111 74.8602055,37.24 76.475589,41.3355556 C79.2701233,48.4288889 81.9271781,54.3716667 85.4804932,58.1663889 C71.6532329,60.7023611 62.3099178,67.8986111 56.0096575,70.70375 C42.9649726,76.5093056 42.9015205,82.86375 42.9015205,82.86375 L42.9015205,93.6620833 L147.94111,93.6488889 L147.94111,82.86375 C147.94111,82.86375 147.880301,76.4881944 134.785384,70.68" id="Fill-3" sketch:type="MSShapeGroup"></path>
        </g>
    </g>
</svg>